<?xml version="1.0" standalone="no"?>
<!DOCTYPE svg PUBLIC "-//W3C//DTD SVG 20010904//EN"
 "http://www.w3.org/TR/2001/REC-SVG-20010904/DTD/svg10.dtd">
<svg version="1.0" xmlns="http://www.w3.org/2000/svg"
 width="29.000000pt" height="17.000000pt" viewBox="2 0 36.000000 11.000000"
 preserveAspectRatio="xMidYMid meet">

<g transform="translate(5.000000,17.000000) scale(0.100000,-0.100000)"
fill="#ffffff" stroke="none">
<path d="M210 150 c0 -9 7 -25 15 -37 l16 -22 -123 -4 -123 -3 123 -2 123 -2
-15 -22 c-9 -12 -16 -29 -16 -38 1 -8 8 -2 16 13 9 16 29 34 46 41 l30 13 -26
7 c-15 4 -35 21 -46 39 -11 17 -20 25 -20 17z"/>
</g>
</svg>
